<svg width="512" height="512" viewBox="0 0 512 512" fill="none" xmlns="http://www.w3.org/2000/svg">
<circle cx="256" cy="256" r="256" fill="#F9F9F9" fill-opacity="0.976471"/>
<path d="M381.001 208.334H297.667V125.001C297.667 113.95 293.277 103.352 285.463 95.5379C277.649 87.7239 267.051 83.334 256.001 83.334C244.95 83.334 234.352 87.7239 226.538 95.5379C218.724 103.352 214.334 113.95 214.334 125.001L215.813 208.334H131.001C119.95 208.334 109.352 212.724 101.538 220.538C93.7239 228.352 89.334 238.95 89.334 250.001C89.334 261.051 93.7239 271.649 101.538 279.463C109.352 287.277 119.95 291.667 131.001 291.667L215.813 290.188L214.334 375.001C214.334 386.051 218.724 396.649 226.538 404.463C234.352 412.277 244.95 416.667 256.001 416.667C267.051 416.667 277.649 412.277 285.463 404.463C293.277 396.649 297.667 386.051 297.667 375.001V290.188L381.001 291.667C392.051 291.667 402.649 287.277 410.463 279.463C418.277 271.649 422.667 261.051 422.667 250.001C422.667 238.95 418.277 228.352 410.463 220.538C402.649 212.724 392.051 208.334 381.001 208.334Z" fill="black"/>
</svg>
